<svg width="100" height="101" viewBox="0 0 100 101" fill="none" xmlns="http://www.w3.org/2000/svg">
<circle cx="50" cy="50.6953" r="50" fill="#243F65"/>
<path d="M76.8918 30.6892C76.6947 30.1006 76.4595 29.9457 76.092 29.7985C75.2884 29.4965 73.9272 29.9534 73.9272 29.9534C73.9272 29.9534 25.7372 47.5182 22.9841 49.4621C22.3913 49.8803 22.1927 50.1281 22.0942 50.4146C21.6183 51.7932 23.101 52.405 23.101 52.405L35.5218 56.5096C35.5218 56.5096 35.9847 56.5793 36.1497 56.4709C38.9754 54.6587 64.5787 38.2711 66.0553 37.7213C66.2883 37.6516 66.4609 37.729 66.4151 37.8916C65.8238 39.9982 43.5862 60.0334 43.5862 60.0334C43.5862 60.0334 43.5014 60.1419 43.448 60.2658L43.4189 60.2503L42.2601 72.7423C42.2601 72.7423 41.7743 76.5681 45.5487 72.7423C48.2116 70.0394 50.7882 67.778 52.0776 66.686C56.3485 69.6754 60.9448 72.9824 62.9287 74.7094C63.9248 75.5768 64.7582 75.7162 65.4442 75.693C67.3272 75.6233 67.8527 73.5245 67.8527 73.5245C67.8527 73.5245 76.6344 37.6903 76.9277 32.8886C76.9567 32.4162 76.9965 32.1219 76.9995 31.7966C77.0049 31.3475 76.9636 30.8983 76.8918 30.6892Z" fill="white"/>
</svg>
