<svg width="240" height="100" viewBox="0 0 240 100" fill="none" xmlns="http://www.w3.org/2000/svg">
<rect width="240" height="100" rx="50" fill="#243F65"/>
<path d="M85.3594 44.875C85.3906 45.0312 85.4062 45.1719 85.4062 45.2969C85.4375 45.3906 85.4531 45.5 85.4531 45.625C85.4531 46.125 85.2656 46.5781 84.8906 46.9844C84.5469 47.3906 84.1094 47.5938 83.5781 47.5938C83.2969 47.5938 83.0781 47.5469 82.9219 47.4531C82.7969 47.3594 82.6562 47.2344 82.5 47.0781C82.375 46.9219 82.2031 46.7344 81.9844 46.5156C81.7969 46.2969 81.5 46.0625 81.0938 45.8125L80.25 45.5312C79.8438 45.4062 79.3906 45.3438 78.8906 45.3438C77.8906 45.3438 77.0156 45.5938 76.2656 46.0938C75.5156 46.5625 74.875 47.1719 74.3438 47.9219C73.8438 48.6719 73.4531 49.5 73.1719 50.4062C72.9219 51.3125 72.7969 52.1875 72.7969 53.0312C72.7969 53.9688 72.9375 54.8438 73.2188 55.6562C73.5312 56.4375 73.9688 57.125 74.5312 57.7188C75.125 58.2812 75.8281 58.7344 76.6406 59.0781C77.4844 59.4219 78.4219 59.5938 79.4531 59.5938C80.0781 59.5938 80.7031 59.5156 81.3281 59.3594C81.9531 59.2031 82.5156 58.9219 83.0156 58.5156L83.1562 58.3281C83.5312 57.7656 84.0469 57.4844 84.7031 57.4844C84.9531 57.4844 85.25 57.5312 85.5938 57.625L85.7812 57.7188C86.4375 58.25 86.7656 58.7969 86.7656 59.3594C86.7656 60.0469 86.5 60.6406 85.9688 61.1406C85.4375 61.6406 84.7969 62.0625 84.0469 62.4062C83.2969 62.7188 82.5 62.9531 81.6562 63.1094C80.8438 63.2656 80.1562 63.3438 79.5938 63.3438C78.0938 63.3438 76.7031 63.1094 75.4219 62.6406C74.1406 62.1406 73.0156 61.4531 72.0469 60.5781C71.1094 59.6719 70.3594 58.5781 69.7969 57.2969C69.2656 56.0156 69 54.5625 69 52.9375C69 51.4688 69.25 50.0469 69.75 48.6719C70.25 47.2969 70.9531 46.0781 71.8594 45.0156C72.7656 43.9219 73.8438 43.0469 75.0938 42.3906C76.375 41.7344 77.7969 41.4062 79.3594 41.4062C80.4844 41.4062 81.5625 41.6719 82.5938 42.2031C83.6562 42.7031 84.5781 43.5938 85.3594 44.875Z" fill="white"/>
<path d="M90.4688 37.6562C90 37.5 89.6719 37.25 89.4844 36.9062C89.2969 36.5625 89.2031 36.2031 89.2031 35.8281C89.2031 35.3906 89.3906 34.9844 89.7656 34.6094C90.1406 34.2031 90.6094 34 91.1719 34C92.1719 34 92.9844 34.2188 93.6094 34.6562C94.2344 35.0938 94.7188 35.6562 95.0625 36.3438C95.4062 37 95.6406 37.7344 95.7656 38.5469C95.8906 39.3281 95.9531 40.0625 95.9531 40.75V42.0156C95.9531 43.7344 96.0156 45.3906 96.1406 46.9844C96.2656 48.5469 96.3906 50.0312 96.5156 51.4375C97.5156 50.4375 98.5 49.625 99.4688 49C100.438 48.3438 101.578 48.0156 102.891 48.0156C103.859 48.0156 104.672 48.2188 105.328 48.625C106.016 49.0312 106.594 49.5781 107.062 50.2656C107.531 50.9219 107.906 51.7031 108.188 52.6094C108.469 53.4844 108.688 54.4062 108.844 55.375C109 56.3125 109.125 57.2656 109.219 58.2344C109.312 59.2031 109.406 60.0938 109.5 60.9062C109.5 61.5312 109.312 62.0156 108.938 62.3594C108.562 62.7031 108.141 62.875 107.672 62.875C107.016 62.875 106.531 62.6562 106.219 62.2188C105.906 61.7812 105.688 61.2344 105.562 60.5781C105.469 59.8906 105.422 59.1562 105.422 58.375C105.422 57.5625 105.375 56.7812 105.281 56.0312C105.062 55.0938 104.797 54.25 104.484 53.5C104.172 52.75 103.703 52.1562 103.078 51.7188C101.891 51.8438 100.906 52.3125 100.125 53.125C99.3438 53.9375 98.7188 54.9219 98.25 56.0781C97.7812 57.2031 97.4531 58.4219 97.2656 59.7344C97.0781 61.0156 96.9844 62.1875 96.9844 63.25C96.9844 63.8125 96.7812 64.2656 96.375 64.6094C96 64.9531 95.5938 65.125 95.1562 65.125C94.7188 65.125 94.2812 64.9844 93.8438 64.7031C93.4375 64.4219 93.2031 63.9375 93.1406 63.25C93.1406 60.3125 93.0469 57.4219 92.8594 54.5781C92.7031 51.7031 92.5156 48.8438 92.2969 46C92.2031 44.5938 92.1094 43.2031 92.0156 41.8281C91.9531 40.4531 91.8125 39.2031 91.5938 38.0781C91.4375 38.0469 91.0625 37.9062 90.4688 37.6562Z" fill="white"/>
<path d="M125.484 56.6406L125.156 56.5938C124.688 56.5 124.25 56.3438 123.844 56.125C123.469 55.9062 123.094 55.6875 122.719 55.4688C122.344 55.25 121.984 55.0625 121.641 54.9062C121.297 54.7188 120.953 54.625 120.609 54.625C119.516 54.75 118.562 55.125 117.75 55.75C116.969 56.375 116.578 57.125 116.578 58C116.578 58.25 116.641 58.5156 116.766 58.7969C116.891 59.0781 117.094 59.4375 117.375 59.875C118.188 60.375 119.078 60.625 120.047 60.625C121.172 60.625 122.156 60.5156 123 60.2969L123.609 59.6875C123.922 59.2812 124.344 59.0781 124.875 59.0781H125.109C125.141 58.8281 125.172 58.5781 125.203 58.3281C125.234 58.0781 125.281 57.8281 125.344 57.5781L125.484 56.6406ZM126.188 62.3125L125.109 63.3438C124.703 63.7188 124.047 63.9844 123.141 64.1406C122.266 64.3281 121.344 64.4219 120.375 64.4219C119.062 64.4219 117.938 64.2812 117 64C116.094 63.7188 115.297 63.1719 114.609 62.3594C113.484 60.8594 112.922 59.4531 112.922 58.1406C112.922 57.2656 113.094 56.4062 113.438 55.5625C113.812 54.6875 114.328 53.9062 114.984 53.2188C115.641 52.5312 116.438 51.9688 117.375 51.5312C118.344 51.0938 119.422 50.875 120.609 50.875C121.109 50.9375 121.594 51.0469 122.062 51.2031C122.531 51.3594 122.969 51.5312 123.375 51.7188C123.781 51.9062 124.141 52.0938 124.453 52.2812C124.797 52.4375 125.062 52.5625 125.25 52.6562L124.969 51.3906C124.812 50.8906 124.625 50.4062 124.406 49.9375C124.188 49.4375 123.922 48.9531 123.609 48.4844L122.672 47.6406C122.422 47.5781 122.188 47.5 121.969 47.4062C121.75 47.2812 121.469 47.2188 121.125 47.2188C120.219 47.2812 119.328 47.4062 118.453 47.5938C117.578 47.75 116.703 47.9844 115.828 48.2969C115.734 48.3281 115.594 48.3438 115.406 48.3438C114.75 48.3438 114.234 48.1562 113.859 47.7812C113.516 47.4062 113.344 47 113.344 46.5625C113.344 46.1875 113.438 45.8594 113.625 45.5781C113.812 45.2656 114.172 44.9531 114.703 44.6406C115.516 44.3906 116.406 44.125 117.375 43.8438C118.375 43.5312 119.375 43.375 120.375 43.375C122.094 43.375 123.516 43.7188 124.641 44.4062C125.797 45.0938 126.703 46 127.359 47.125C128.047 48.2188 128.516 49.4375 128.766 50.7812C129.047 52.125 129.188 53.4531 129.188 54.7656C129.188 55.5469 129.156 56.3906 129.094 57.2969C129.062 58.1719 128.953 59 128.766 59.7812C128.609 60.5312 128.375 61.1562 128.062 61.6562C127.75 62.1562 127.328 62.4062 126.797 62.4062C126.672 62.4062 126.547 62.4062 126.422 62.4062C126.297 62.375 126.219 62.3438 126.188 62.3125Z" fill="white"/>
<path d="M134.906 61.8438C134.906 61 134.922 60.125 134.953 59.2188C135.016 58.3125 135.125 57.4531 135.281 56.6406L135.609 53.1719L136.031 50.6406C136.125 50.2344 136.172 49.8594 136.172 49.5156C136.172 49.1406 136.094 48.75 135.938 48.3438C135.812 47.9375 135.453 47.7344 134.859 47.7344C134.609 47.7344 134.359 47.6719 134.109 47.5469C133.891 47.3906 133.688 47.2188 133.5 47.0312C133.312 46.8125 133.156 46.5938 133.031 46.375C132.938 46.1562 132.891 45.9531 132.891 45.7656C132.891 45.3906 133.078 44.9844 133.453 44.5469C133.828 44.1094 134.344 43.8906 135 43.8906C136.625 44.0469 137.812 44.5 138.562 45.25C139.312 46 139.688 46.9219 139.688 48.0156C140.625 47.3594 141.719 46.875 142.969 46.5625C144.219 46.2188 145.703 45.9844 147.422 45.8594C148.109 45.8594 148.641 46.0469 149.016 46.4219C149.391 46.7656 149.578 47.2031 149.578 47.7344C149.578 48.2031 149.422 48.625 149.109 49C148.797 49.3438 148.375 49.5625 147.844 49.6562C146.406 49.75 145.188 49.9062 144.188 50.125C143.188 50.3438 142.344 50.7031 141.656 51.2031C140.969 51.6719 140.438 52.3125 140.062 53.125C139.688 53.9375 139.406 54.9844 139.219 56.2656L139.078 56.9688V58.8906C139.047 59.3594 139.016 59.8438 138.984 60.3438C138.984 60.8125 138.953 61.2969 138.891 61.7969L138.75 62.6406L138.469 63.3906C137.969 63.9844 137.391 64.2812 136.734 64.2812C135.609 64.2812 135 63.625 134.906 62.3125V61.8438Z" fill="white"/>
<path d="M166.547 59.0312C166.953 58.5625 167.297 58.2656 167.578 58.1406C167.891 57.9844 168.219 57.9062 168.562 57.9062C169.094 57.9062 169.484 58.125 169.734 58.5625C170.016 59 170.156 59.5 170.156 60.0625C170 60.6562 169.734 61.1562 169.359 61.5625C169.016 61.9688 168.594 62.2969 168.094 62.5469C167.594 62.7969 167.047 62.9844 166.453 63.1094C165.859 63.2031 165.266 63.25 164.672 63.25C164.047 63.2188 163.422 63.125 162.797 62.9688C162.203 62.8125 161.641 62.6094 161.109 62.3594C160.578 62.0781 160.109 61.7656 159.703 61.4219C159.328 61.0469 159.062 60.625 158.906 60.1562C158.188 58.375 157.703 56.5469 157.453 54.6719C157.203 52.7656 157.078 50.9219 157.078 49.1406V47.9688L154.172 48.3906C153.547 48.3281 153.062 48.1094 152.719 47.7344C152.406 47.3594 152.25 46.9062 152.25 46.375C152.25 46.0312 152.375 45.6875 152.625 45.3438C152.875 44.9688 153.25 44.7031 153.75 44.5469L157.172 44.125C157.172 43.0312 157.203 41.9531 157.266 40.8906C157.359 39.7969 157.422 38.7031 157.453 37.6094C157.797 36.5156 158.422 35.9062 159.328 35.7812C160.234 35.7812 160.891 36.3594 161.297 37.5156C161.234 38.7656 161.141 40.3281 161.016 42.2031L160.922 43.5156C161.734 43.3906 162.578 43.2969 163.453 43.2344C164.328 43.1719 165.25 43.1406 166.219 43.1406C167.344 43.5469 167.906 44.1719 167.906 45.0156C167.844 45.4531 167.672 45.8594 167.391 46.2344C167.109 46.5781 166.688 46.8125 166.125 46.9375C164.281 46.9375 162.516 47.0781 160.828 47.3594V48.5781C160.828 49.5781 160.859 50.5781 160.922 51.5781C160.984 52.5469 161.062 53.4844 161.156 54.3906C161.281 55.2656 161.438 56.0781 161.625 56.8281C161.812 57.5469 162.031 58.1406 162.281 58.6094C162.688 58.7969 163.156 58.9844 163.688 59.1719C164.219 59.3281 164.734 59.4062 165.234 59.4062C165.516 59.4062 165.891 59.3281 166.359 59.1719L166.547 59.0312Z" fill="white"/>
</svg>
