<svg width="100" height="101" viewBox="0 0 100 101" fill="none" xmlns="http://www.w3.org/2000/svg">
<circle cx="50" cy="50.6953" r="50" fill="#243F65"/>
<path d="M62.8036 72.6589L50.3002 54.4926L48.5197 51.9066L34.011 30.8268H40.252L51.9853 47.8746L53.7657 50.4606L69.0445 72.6589H62.8036ZM71.6246 70.8844L55.8765 48.0055L54.0961 45.418L42.8309 29.0519L41.8972 27.6957H28.0547L31.4306 32.6013L46.409 54.3644L48.1895 56.9492L60.2243 74.4353L61.1581 75.79H75.0007L71.6246 70.8844Z" fill="white"/>
<path d="M48.5191 51.9066L50.2996 54.4926L48.1889 56.9492L31.9936 75.79H28L46.4083 54.3644L48.5191 51.9066Z" fill="white"/>
<path d="M73.3332 27.6951L55.8756 48.005L53.7648 50.46L51.9844 47.874L54.0952 45.4174L65.9207 31.6532L69.3395 27.6951H73.3332Z" fill="white"/>
</svg>
