<svg width="975" height="281" viewBox="0 0 975 281" fill="none" xmlns="http://www.w3.org/2000/svg">
<ellipse cx="487.5" cy="140.5" rx="487.5" ry="140.5" fill="#243F65"/>
<path d="M317.965 69.9969C317.796 76.0236 317.712 82.2473 317.712 88.6682V108.438C317.712 109.452 317.345 110.268 316.613 110.888C315.937 111.507 315.205 111.817 314.416 111.817C313.628 111.817 312.839 111.536 312.051 110.972C311.318 110.465 310.896 109.564 310.783 108.269V88.8372C310.783 82.5853 310.868 76.5305 311.037 70.6728C308.333 70.9544 305.911 71.2079 303.77 71.4332C301.63 71.6022 299.743 71.7993 298.109 72.0246C296.983 71.9119 296.11 71.5177 295.49 70.8418C294.927 70.1659 294.645 69.3492 294.645 68.3917C294.645 67.3216 295.152 66.5049 296.166 65.9416C297.18 65.3784 298.532 64.956 300.222 64.6743C301.911 64.3364 303.855 64.1111 306.052 63.9985C308.305 63.8858 310.671 63.7168 313.149 63.4916C316.585 63.2099 319.627 62.9846 322.274 62.8157C324.922 62.6467 327.203 62.5622 329.118 62.5622C331.146 63.2944 332.16 64.4209 332.16 65.9416C331.991 67.1244 331.484 67.9693 330.639 68.4762C329.85 68.9831 328.808 69.321 327.513 69.49C326.274 69.659 324.837 69.7435 323.204 69.7435C321.57 69.7435 319.824 69.828 317.965 69.9969Z" fill="white"/>
<path d="M339.257 64.5899C338.412 64.3082 337.821 63.8577 337.483 63.2381C337.145 62.6185 336.976 61.9708 336.976 61.2949C336.976 60.5064 337.314 59.7742 337.99 59.0983C338.666 58.3661 339.511 58 340.525 58C342.327 58 343.792 58.3943 344.918 59.1828C346.045 59.9713 346.918 60.9852 347.538 62.2243C348.157 63.4071 348.58 64.7307 348.805 66.1951C349.03 67.6032 349.143 68.9268 349.143 70.1659V72.447C349.143 75.5448 349.256 78.53 349.481 81.4025C349.706 84.2186 349.932 86.894 350.157 89.4286C351.959 87.6262 353.734 86.1618 355.48 85.0353C357.226 83.8525 359.282 83.2611 361.648 83.2611C363.394 83.2611 364.859 83.6272 366.042 84.3594C367.281 85.0917 368.323 86.0773 369.168 87.3164C370.013 88.4992 370.689 89.9073 371.196 91.5407C371.703 93.1178 372.097 94.7793 372.379 96.5253C372.66 98.2151 372.885 99.9329 373.054 101.679C373.223 103.425 373.392 105.03 373.561 106.495C373.561 107.621 373.223 108.494 372.547 109.114C371.872 109.733 371.111 110.043 370.266 110.043C369.083 110.043 368.21 109.649 367.647 108.86C367.084 108.072 366.689 107.086 366.464 105.903C366.295 104.664 366.211 103.341 366.211 101.932C366.211 100.468 366.126 99.0599 365.957 97.7081C365.563 96.0184 365.084 94.4977 364.521 93.1459C363.957 91.7942 363.112 90.724 361.986 89.9355C359.845 90.1608 358.071 91.0056 356.663 92.47C355.255 93.9345 354.128 95.7087 353.283 97.7926C352.438 99.8203 351.847 102.017 351.509 104.382C351.171 106.692 351.002 108.804 351.002 110.719C351.002 111.733 350.636 112.549 349.903 113.169C349.227 113.789 348.495 114.098 347.707 114.098C346.918 114.098 346.129 113.845 345.341 113.338C344.609 112.831 344.186 111.958 344.073 110.719C344.073 105.424 343.904 100.215 343.566 95.0891C343.285 89.9073 342.947 84.7537 342.553 79.6283C342.384 77.0937 342.215 74.5873 342.046 72.1091C341.933 69.6308 341.679 67.3779 341.285 65.3502C341.003 65.2939 340.328 65.0405 339.257 64.5899Z" fill="white"/>
<path d="M386.573 88.3303C386.461 88.3866 386.404 88.4429 386.404 88.4992H386.573C386.968 88.4992 387.362 88.6119 387.756 88.8372C388.151 89.0061 388.488 89.2314 388.77 89.5131C389.052 89.7384 389.277 89.9636 389.446 90.1889C389.671 90.3579 389.812 90.4424 389.869 90.4424C390.713 90.8367 391.643 91.0338 392.657 91.0338C394.29 91.0338 395.67 90.8085 396.797 90.3579C397.924 89.851 398.487 88.6682 398.487 86.8095C398.149 85.6831 397.755 84.7537 397.304 84.0215C396.91 83.2893 396.234 82.5853 395.276 81.9094L393.502 81.149H392.319C391.868 81.149 391.277 81.2616 390.544 81.4869C389.812 81.7122 389.08 82.022 388.348 82.4163C388.122 82.7542 387.897 83.2611 387.672 83.937C387.446 84.5566 387.249 85.1761 387.08 85.7957C386.911 86.4153 386.77 86.9785 386.658 87.4854C386.601 87.9923 386.573 88.2739 386.573 88.3303ZM387.249 96.5253L386.996 95.596C387.672 98.5812 389.305 101.031 391.896 102.946C392.46 103.397 393.164 103.791 394.009 104.129C394.91 104.467 395.783 104.777 396.628 105.058C397.529 105.34 398.318 105.565 398.994 105.734C399.67 105.847 400.092 105.903 400.261 105.903C400.824 105.396 401.529 105.143 402.373 105.143C403.387 105.256 404.176 105.678 404.739 106.41C405.303 107.086 405.584 107.818 405.584 108.607C405.584 109.846 404.993 110.832 403.81 111.564C402.683 112.352 401.472 112.747 400.177 112.747C397.417 112.747 394.797 112.183 392.319 111.057C389.84 109.987 387.672 108.522 385.813 106.664C383.954 104.805 382.433 102.665 381.25 100.243C380.124 97.8208 379.504 95.2581 379.391 92.5545C379.391 90.6959 379.532 88.6964 379.814 86.5561C380.096 84.4158 380.687 82.4444 381.588 80.6421C382.489 78.7834 383.785 77.2345 385.475 75.9954C387.221 74.7563 389.531 74.1367 392.403 74.1367C394.206 74.1367 395.896 74.531 397.473 75.3195C399.05 76.0517 400.402 77.0655 401.529 78.361C402.711 79.6564 403.641 81.149 404.317 82.8387C404.993 84.4721 405.331 86.19 405.331 87.9923C405.331 89.6257 405.021 91.062 404.401 92.3011C403.838 93.5402 403.049 94.5822 402.035 95.427C401.022 96.2156 399.811 96.8351 398.402 97.2857C397.05 97.68 395.614 97.8771 394.093 97.8771C393.474 97.8771 392.769 97.8208 391.981 97.7081C391.249 97.5955 390.544 97.4828 389.869 97.3702C389.193 97.2012 388.601 97.0604 388.094 96.9478C387.644 96.7788 387.362 96.638 387.249 96.5253Z" fill="white"/>
<path d="M466.588 67.5469L468.7 64.4209C469.545 63.6887 470.137 63.2663 470.475 63.1536C470.869 62.9846 471.348 62.9002 471.911 62.9002H472.503L473.685 63.2381L474.446 63.914C475.009 64.4209 475.488 65.2376 475.882 66.3641C476.277 67.4342 476.615 68.5888 476.896 69.828C477.178 71.0671 477.403 72.278 477.572 73.4608C477.741 74.5873 477.91 75.4885 478.079 76.1644C478.473 78.023 478.783 79.6001 479.008 80.8955C479.234 82.191 479.431 83.4019 479.6 84.5284C479.769 85.6549 479.938 86.8658 480.107 88.1613C480.332 89.4567 480.642 91.0338 481.036 92.8925C481.487 95.2017 481.881 97.4265 482.219 99.5668C482.613 101.651 482.811 103.819 482.811 106.072C482.811 108.1 482.445 109.452 481.712 110.127C480.98 110.803 480.051 111.141 478.924 111.141C478.079 111.029 477.375 110.691 476.812 110.127C476.248 109.564 475.939 108.776 475.882 107.762C475.939 107.311 475.967 106.889 475.967 106.495C476.023 106.1 476.051 105.678 476.051 105.227C476.051 103.031 475.798 100.919 475.291 98.8909C474.84 96.807 474.39 94.6385 473.939 92.3856C473.15 88.3303 472.531 84.8382 472.08 81.9094C471.686 78.9805 471.151 76.2207 470.475 73.6298L470.052 74.2212C468.982 75.7983 467.912 77.4598 466.842 79.2058C465.771 80.8955 464.729 82.5853 463.715 84.275C462.758 85.9647 461.828 87.5699 460.927 89.0906C460.082 90.6114 459.322 91.9631 458.646 93.1459C457.632 94.3287 456.646 94.9201 455.688 94.9201C454.787 94.9201 453.914 94.4695 453.069 93.5684C452.281 92.6109 451.52 91.4281 450.788 90.02C450.056 88.6119 449.38 87.1193 448.76 85.5422C448.197 83.9089 447.69 82.4444 447.239 81.149L444.62 74.9816C444.169 77.1219 443.803 79.4311 443.521 81.9094C443.296 84.3313 443.127 86.8658 443.015 89.5131C442.902 92.1039 442.817 94.7512 442.761 97.4547C442.761 100.158 442.761 102.834 442.761 105.481C442.761 106.495 442.395 107.311 441.663 107.931C440.93 108.55 440.17 108.86 439.381 108.86C438.367 108.86 437.607 108.607 437.1 108.1C436.649 107.593 436.34 106.889 436.171 105.988C436.002 105.087 435.917 104.073 435.917 102.946C435.917 101.763 435.917 100.524 435.917 99.2289C435.917 95.3426 436.002 91.4844 436.171 87.6544C436.34 83.8244 436.818 79.9662 437.607 76.0799C437.832 75.3477 438.001 74.3338 438.114 73.0384C438.283 71.6866 438.536 70.3912 438.874 69.1521C439.269 67.913 439.804 66.8428 440.48 65.9416C441.212 64.9841 442.226 64.5054 443.521 64.5054C444.535 64.5054 445.577 65.0405 446.648 66.1106C447.718 67.1244 448.732 68.448 449.689 70.0814C450.703 71.7148 451.633 73.5172 452.478 75.4885C453.379 77.4598 454.139 79.403 454.759 81.318C455.266 83.0077 455.717 83.8525 456.111 83.8525C456.111 83.8525 456.308 83.5709 456.702 83.0077C457.097 82.4444 457.575 81.7404 458.139 80.8955C458.702 79.9944 459.293 79.0369 459.913 78.023C460.589 76.9529 461.209 75.9109 461.772 74.8971L465.574 69.0676C465.912 68.6733 466.25 68.1664 466.588 67.5469Z" fill="white"/>
<path d="M511.454 98.8065L510.862 98.722C510.017 98.553 509.229 98.2714 508.496 97.8771C507.821 97.4828 507.145 97.0886 506.469 96.6943C505.793 96.3001 505.145 95.9621 504.525 95.6805C503.906 95.3426 503.286 95.1736 502.666 95.1736C500.695 95.3989 498.977 96.0748 497.512 97.2012C496.104 98.3277 495.4 99.6795 495.4 101.257C495.4 101.707 495.513 102.186 495.738 102.693C495.963 103.2 496.33 103.847 496.836 104.636C498.301 105.537 499.906 105.988 501.653 105.988C503.68 105.988 505.455 105.791 506.976 105.396L508.074 104.298C508.637 103.566 509.398 103.2 510.355 103.2H510.778C510.834 102.749 510.89 102.299 510.947 101.848C511.003 101.397 511.088 100.947 511.2 100.496L511.454 98.8065ZM512.721 109.029L510.778 110.888C510.046 111.564 508.863 112.043 507.229 112.324C505.652 112.662 503.99 112.831 502.244 112.831C499.878 112.831 497.85 112.578 496.161 112.071C494.527 111.564 493.091 110.578 491.851 109.114C489.824 106.41 488.81 103.876 488.81 101.51C488.81 99.9329 489.119 98.384 489.739 96.8633C490.415 95.2862 491.344 93.8781 492.527 92.639C493.71 91.3999 495.147 90.3861 496.836 89.5975C498.583 88.809 500.526 88.4147 502.666 88.4147C503.568 88.5274 504.441 88.7245 505.286 89.0061C506.131 89.2878 506.919 89.5975 507.652 89.9355C508.384 90.2734 509.032 90.6114 509.595 90.9493C510.214 91.2309 510.693 91.4562 511.031 91.6252L510.524 89.3441C510.243 88.4429 509.905 87.5699 509.51 86.725C509.116 85.8239 508.637 84.9508 508.074 84.106L506.384 82.5853C505.934 82.4726 505.511 82.3318 505.117 82.1628C504.722 81.9375 504.216 81.8249 503.596 81.8249C501.962 81.9375 500.357 82.1628 498.78 82.5008C497.203 82.7824 495.625 83.2048 494.048 83.768C493.879 83.8244 493.626 83.8525 493.288 83.8525C492.105 83.8525 491.175 83.5146 490.499 82.8387C489.88 82.1628 489.57 81.4306 489.57 80.6421C489.57 79.9662 489.739 79.3748 490.077 78.8679C490.415 78.3047 491.063 77.7414 492.02 77.1782C493.485 76.7276 495.09 76.2488 496.836 75.7419C498.639 75.1787 500.441 74.8971 502.244 74.8971C505.342 74.8971 507.905 75.5166 509.933 76.7558C512.017 77.9949 513.651 79.6283 514.833 81.6559C516.073 83.6272 516.918 85.8239 517.368 88.2458C517.875 90.6677 518.129 93.0614 518.129 95.427C518.129 96.8351 518.072 98.3559 517.96 99.9892C517.903 101.566 517.706 103.059 517.368 104.467C517.087 105.819 516.664 106.945 516.101 107.846C515.538 108.748 514.777 109.198 513.82 109.198C513.594 109.198 513.369 109.198 513.144 109.198C512.918 109.142 512.777 109.086 512.721 109.029Z" fill="white"/>
<path d="M541.533 85.5422C540.576 85.3169 539.702 85.0353 538.914 84.6974C538.182 84.3594 537.393 84.1905 536.548 84.1905C535.759 84.1905 535.055 84.4439 534.436 84.9508C533.872 85.4014 533.366 86.021 532.915 86.8095C532.521 87.5981 532.211 88.4711 531.985 89.4286C531.76 90.3861 531.648 91.3717 531.648 92.3856C531.648 93.0051 531.732 93.7092 531.901 94.4977C532.07 95.2299 532.295 95.9058 532.577 96.5253C532.915 97.1449 533.309 97.68 533.76 98.1306C534.21 98.5248 534.746 98.722 535.365 98.722C536.435 98.722 537.365 98.384 538.153 97.7081C538.998 97.0323 539.674 96.1874 540.181 95.1736C540.688 94.1598 541.054 93.0614 541.28 91.8786C541.561 90.6959 541.702 89.5975 541.702 88.5837C541.702 88.0768 541.674 87.5981 541.618 87.1475C541.561 86.6406 541.533 86.1055 541.533 85.5422ZM531.816 129.982C530.521 129.982 529.62 129.559 529.113 128.714C528.606 127.926 528.352 127.137 528.352 126.349C528.352 125.56 528.634 124.828 529.197 124.152C529.817 123.476 530.634 123.138 531.648 123.138C534.013 123.138 535.985 122.772 537.562 122.04C539.139 121.308 540.407 120.322 541.364 119.083C542.378 117.844 543.082 116.379 543.477 114.69C543.871 113.056 544.068 111.31 544.068 109.452C544.068 108.212 544.012 106.973 543.899 105.734C543.843 104.495 543.758 103.228 543.645 101.932C541.28 104.298 538.548 105.481 535.45 105.481C533.76 105.481 532.267 105.143 530.972 104.467C529.676 103.735 528.578 102.777 527.676 101.594C526.775 100.355 526.071 98.9473 525.564 97.3702C525.113 95.7931 524.888 94.1598 524.888 92.47C524.888 90.8367 525.113 89.1188 525.564 87.3164C526.071 85.5141 526.803 83.8525 527.761 82.3318C528.775 80.8111 529.986 79.5719 531.394 78.6144C532.859 77.6006 534.548 77.0937 536.464 77.0937C537.421 77.0937 538.435 77.2345 539.505 77.5161C540.576 77.7414 541.561 78.0512 542.463 78.4455C543.42 78.7834 544.237 79.1777 544.913 79.6283C545.589 80.0225 546.011 80.3605 546.18 80.6421C546.518 81.2616 546.687 81.853 546.687 82.4163L547.11 82.6697C547.673 83.233 548.124 83.9933 548.462 84.9508C548.631 86.9222 548.856 88.8372 549.138 90.6959C549.476 92.4982 549.785 94.3006 550.067 96.1029C550.349 97.849 550.602 99.6513 550.827 101.51C551.053 103.312 551.165 105.199 551.165 107.171C551.165 109.423 550.884 111.874 550.32 114.521C549.757 117.224 548.828 119.703 547.532 121.955C546.293 124.265 544.631 126.18 542.547 127.7C540.519 129.221 538.041 129.982 535.112 129.982H531.816Z" fill="white"/>
<path d="M567.05 87.7389C567.332 86.4434 567.839 85.5986 568.571 85.2043C569.303 84.7537 570.148 84.5284 571.106 84.5284C571.894 84.6411 572.57 85.0635 573.133 85.7957C573.697 86.5279 573.978 87.4291 573.978 88.4992C573.866 90.6959 573.753 92.6672 573.64 94.4132C573.528 96.1029 573.443 97.7645 573.387 99.3979C573.331 101.031 573.274 102.749 573.218 104.551C573.218 106.297 573.218 108.325 573.218 110.634C573.218 111.592 572.852 112.38 572.12 113C571.387 113.676 570.627 114.014 569.838 114.014C569.05 114.014 568.289 113.732 567.557 113.169C566.825 112.606 566.402 111.733 566.29 110.55C566.29 106.1 566.374 102.299 566.543 99.1444L567.05 87.7389ZM563.417 75.404C562.741 75.1224 562.178 74.6999 561.727 74.1367C561.333 73.5172 561.136 72.8976 561.136 72.278C561.136 71.4332 561.417 70.6165 561.98 69.828C562.6 69.0394 563.558 68.6452 564.853 68.6452C566.487 68.9268 567.923 69.4055 569.162 70.0814C570.402 70.7573 571.669 71.1797 572.965 71.3487C573.978 71.6303 574.711 72.1372 575.161 72.8694C575.612 73.5453 575.837 74.2212 575.837 74.8971C575.837 75.6856 575.527 76.446 574.908 77.1782C574.345 77.9104 573.584 78.2765 572.627 78.2765C571.782 78.2765 570.965 78.1639 570.176 77.9386C569.444 77.7133 568.712 77.4316 567.979 77.0937C567.247 76.7558 566.515 76.446 565.783 76.1644C565.05 75.8264 564.262 75.573 563.417 75.404Z" fill="white"/>
<path d="M615.887 77.6006C615.943 77.8822 615.971 78.1357 615.971 78.361C616.028 78.53 616.056 78.7271 616.056 78.9524C616.056 79.8536 615.718 80.6703 615.042 81.4025C614.422 82.1347 613.634 82.5008 612.676 82.5008C612.169 82.5008 611.775 82.4163 611.493 82.2473C611.268 82.0783 611.014 81.853 610.733 81.5714C610.507 81.2898 610.198 80.9519 609.803 80.5576C609.465 80.1633 608.93 79.7409 608.198 79.2903L606.677 78.7834C605.945 78.5581 605.128 78.4455 604.227 78.4455C602.424 78.4455 600.847 78.8961 599.495 79.7972C598.143 80.6421 596.989 81.7404 596.031 83.0922C595.13 84.4439 594.426 85.9365 593.919 87.5699C593.468 89.2033 593.243 90.7803 593.243 92.3011C593.243 93.9908 593.496 95.5678 594.003 97.0323C594.567 98.4403 595.355 99.6795 596.369 100.75C597.439 101.763 598.707 102.58 600.171 103.2C601.692 103.819 603.382 104.129 605.241 104.129C606.367 104.129 607.494 103.988 608.62 103.707C609.747 103.425 610.761 102.918 611.662 102.186L611.916 101.848C612.592 100.834 613.521 100.327 614.704 100.327C615.155 100.327 615.69 100.412 616.309 100.581L616.647 100.75C617.83 101.707 618.422 102.693 618.422 103.707C618.422 104.946 617.943 106.016 616.985 106.917C616.028 107.818 614.873 108.579 613.521 109.198C612.169 109.761 610.733 110.184 609.212 110.465C607.747 110.747 606.508 110.888 605.494 110.888C602.79 110.888 600.284 110.465 597.974 109.621C595.665 108.719 593.637 107.48 591.891 105.903C590.201 104.27 588.849 102.299 587.835 99.9892C586.878 97.68 586.399 95.0609 586.399 92.1321C586.399 89.4849 586.85 86.9222 587.751 84.4439C588.652 81.9657 589.919 79.7691 591.553 77.8541C593.186 75.8827 595.13 74.3057 597.383 73.1229C599.692 71.9401 602.255 71.3487 605.072 71.3487C607.1 71.3487 609.043 71.8274 610.902 72.7849C612.817 73.6861 614.479 75.2913 615.887 77.6006Z" fill="white"/>
<path d="M646.98 98.8065L646.389 98.722C645.544 98.553 644.755 98.2714 644.023 97.8771C643.347 97.4828 642.671 97.0886 641.995 96.6943C641.319 96.3001 640.671 95.9621 640.052 95.6805C639.432 95.3426 638.813 95.1736 638.193 95.1736C636.221 95.3989 634.503 96.0748 633.039 97.2012C631.631 98.3277 630.927 99.6795 630.927 101.257C630.927 101.707 631.039 102.186 631.265 102.693C631.49 103.2 631.856 103.847 632.363 104.636C633.828 105.537 635.433 105.988 637.179 105.988C639.207 105.988 640.981 105.791 642.502 105.396L643.601 104.298C644.164 103.566 644.924 103.2 645.882 103.2H646.304C646.361 102.749 646.417 102.299 646.473 101.848C646.53 101.397 646.614 100.947 646.727 100.496L646.98 98.8065ZM648.248 109.029L646.304 110.888C645.572 111.564 644.389 112.043 642.756 112.324C641.178 112.662 639.517 112.831 637.771 112.831C635.405 112.831 633.377 112.578 631.687 112.071C630.054 111.564 628.617 110.578 627.378 109.114C625.35 106.41 624.336 103.876 624.336 101.51C624.336 99.9329 624.646 98.384 625.266 96.8633C625.942 95.2862 626.871 93.8781 628.054 92.639C629.237 91.3999 630.673 90.3861 632.363 89.5975C634.109 88.809 636.052 88.4147 638.193 88.4147C639.094 88.5274 639.967 88.7245 640.812 89.0061C641.657 89.2878 642.446 89.5975 643.178 89.9355C643.91 90.2734 644.558 90.6114 645.121 90.9493C645.741 91.2309 646.22 91.4562 646.558 91.6252L646.051 89.3441C645.769 88.4429 645.431 87.5699 645.037 86.725C644.643 85.8239 644.164 84.9508 643.601 84.106L641.911 82.5853C641.46 82.4726 641.038 82.3318 640.643 82.1628C640.249 81.9375 639.742 81.8249 639.122 81.8249C637.489 81.9375 635.884 82.1628 634.306 82.5008C632.729 82.7824 631.152 83.2048 629.575 83.768C629.406 83.8244 629.152 83.8525 628.814 83.8525C627.631 83.8525 626.702 83.5146 626.026 82.8387C625.406 82.1628 625.097 81.4306 625.097 80.6421C625.097 79.9662 625.266 79.3748 625.604 78.8679C625.942 78.3047 626.589 77.7414 627.547 77.1782C629.011 76.7276 630.617 76.2488 632.363 75.7419C634.165 75.1787 635.968 74.8971 637.771 74.8971C640.869 74.8971 643.432 75.5166 645.459 76.7558C647.544 77.9949 649.177 79.6283 650.36 81.6559C651.599 83.6272 652.444 85.8239 652.895 88.2458C653.402 90.6677 653.655 93.0614 653.655 95.427C653.655 96.8351 653.599 98.3559 653.486 99.9892C653.43 101.566 653.233 103.059 652.895 104.467C652.613 105.819 652.191 106.945 651.627 107.846C651.064 108.748 650.304 109.198 649.346 109.198C649.121 109.198 648.895 109.198 648.67 109.198C648.445 109.142 648.304 109.086 648.248 109.029Z" fill="white"/>
<path d="M666.414 63.576C666.695 62.6185 667.118 61.8582 667.681 61.2949C668.301 60.7317 669.005 60.4501 669.793 60.4501C671.483 60.4501 672.666 61.4639 673.342 63.4916C673.342 67.7158 673.314 71.7148 673.258 75.4885C673.201 79.2058 673.173 82.7261 673.173 86.0492C673.173 91.6815 673.511 97.7926 674.187 104.382C674.694 104.551 675.314 104.749 676.046 104.974C676.834 105.143 677.567 105.424 678.243 105.819C678.975 106.157 679.566 106.607 680.017 107.171C680.524 107.734 680.777 108.438 680.777 109.283C680.777 110.127 680.439 110.86 679.763 111.479C679.144 112.155 678.383 112.493 677.482 112.493C676.863 112.493 676.187 112.324 675.454 111.986C673.483 111.029 671.962 110.381 670.892 110.043C669.878 109.649 669.089 109.226 668.526 108.776C668.019 108.269 667.681 107.508 667.512 106.495C667.343 105.424 667.174 103.735 667.005 101.426C666.611 99.3415 666.414 97.0604 666.414 94.5822C666.414 92.1039 666.414 89.7102 666.414 87.4009V63.576Z" fill="white"/>
<path d="M307.826 171.126C308.333 172.083 308.586 172.985 308.586 173.829C308.586 174.618 308.248 175.322 307.572 175.942C306.953 176.505 306.136 176.786 305.122 176.786C304.446 176.786 303.827 176.646 303.263 176.364C301.067 174.505 298.673 173.576 296.081 173.576C293.152 173.576 290.674 174.759 288.646 177.124C288.59 177.35 288.505 177.603 288.393 177.885C288.336 178.166 288.252 178.42 288.139 178.645C288.139 181.011 288.759 182.982 289.998 184.559C291.237 186.08 292.786 187.46 294.645 188.699C296.504 189.882 298.504 191.008 300.644 192.078C302.785 193.148 304.784 194.388 306.643 195.796C308.502 197.204 310.051 198.922 311.29 200.949C312.529 202.921 313.149 205.399 313.149 208.384C313.149 210.862 312.558 212.946 311.375 214.636C310.248 216.326 308.812 217.706 307.066 218.776C305.319 219.79 303.461 220.522 301.489 220.972C299.518 221.479 297.687 221.733 295.997 221.733C293.068 221.733 290.195 221.113 287.379 219.874C284.562 218.691 282.112 216.889 280.028 214.467C279.577 213.847 279.127 213.059 278.676 212.101C278.225 211.144 278 210.215 278 209.313C278 208.356 278.282 207.539 278.845 206.863C279.465 206.131 280.338 205.765 281.464 205.765C282.534 205.765 283.379 206.244 283.999 207.201C284.675 208.102 285.266 209.229 285.773 210.581C287.238 212.045 288.815 213.143 290.505 213.876C292.195 214.551 293.941 214.889 295.743 214.889C296.419 214.889 297.264 214.833 298.278 214.72C299.292 214.551 300.278 214.298 301.236 213.96C302.249 213.622 303.151 213.2 303.939 212.693C304.784 212.13 305.376 211.454 305.714 210.665C305.826 210.215 305.911 209.848 305.967 209.567C306.08 209.229 306.192 208.919 306.305 208.637C305.967 206.722 305.263 205.061 304.193 203.653C303.179 202.245 301.968 201.006 300.56 199.935C299.151 198.865 297.659 197.936 296.081 197.147C294.561 196.359 293.152 195.599 291.857 194.866C289.547 193.571 287.463 192.022 285.604 190.22C283.746 188.361 282.337 185.686 281.38 182.194C281.098 181.18 280.957 180.222 280.957 179.321C280.957 177.406 281.436 175.66 282.394 174.083C283.351 172.506 284.59 171.182 286.111 170.112C287.632 168.986 289.35 168.113 291.265 167.493C293.181 166.874 295.124 166.564 297.095 166.564C299.405 166.564 301.405 166.986 303.094 167.831C304.784 168.62 306.361 169.718 307.826 171.126Z" fill="white"/>
<path d="M320.753 185.911C320.979 185.855 321.232 185.826 321.514 185.826C321.795 185.826 322.133 185.798 322.528 185.742H322.612C324.64 185.742 326.189 186.08 327.259 186.756C328.386 187.375 329.343 188.445 330.132 189.966C331.259 188.84 332.413 188.051 333.596 187.601C334.779 187.094 336.018 186.84 337.314 186.84C339.511 186.84 341.482 187.403 343.228 188.53C344.975 189.6 346.439 191.036 347.622 192.839C348.861 194.641 349.791 196.753 350.41 199.175C351.086 201.541 351.424 203.991 351.424 206.525C351.424 208.891 351.227 211.2 350.833 213.453C350.495 215.706 350.241 217.846 350.072 219.874C349.453 221.338 348.383 222.24 346.862 222.578H346.524C345.735 222.465 344.946 222.155 344.158 221.648C343.426 221.141 343.059 220.24 343.059 218.945L343.144 218.1C343.2 217.818 343.257 217.593 343.313 217.424C343.369 217.199 343.426 217.002 343.482 216.833L343.989 213.115C344.102 212.101 344.186 211.088 344.242 210.074C344.355 209.06 344.411 208.018 344.411 206.948C344.411 205.821 344.299 204.498 344.073 202.977C343.904 201.456 343.538 200.02 342.975 198.668C342.412 197.26 341.623 196.077 340.609 195.12C339.595 194.162 338.272 193.684 336.638 193.684C336.018 194.022 335.314 194.416 334.526 194.866C333.737 195.317 333.005 195.542 332.329 195.542H331.991C331.822 195.542 331.737 195.599 331.737 195.711C331.737 195.768 331.737 195.796 331.737 195.796C331.794 195.796 331.822 195.824 331.822 195.88C332.104 197.514 332.301 199.203 332.413 200.949C332.582 202.695 332.667 204.47 332.667 206.272C332.667 207.68 332.611 209.313 332.498 211.172C332.442 212.974 332.244 214.72 331.906 216.41C331.568 218.044 331.062 219.423 330.386 220.55C329.766 221.733 328.865 222.324 327.682 222.324C326.837 222.324 326.02 222.043 325.231 221.479C324.499 220.916 324.133 219.987 324.133 218.691C324.133 218.353 324.161 218.1 324.218 217.931C325.288 214.214 325.823 210.074 325.823 205.512C325.823 200.724 325.372 196.697 324.471 193.43L324.218 193.092C323.654 193.036 323.035 192.923 322.359 192.754C321.739 192.585 321.148 192.36 320.584 192.078C320.021 191.74 319.542 191.346 319.148 190.896C318.754 190.389 318.557 189.769 318.557 189.037C318.557 187.629 319.289 186.587 320.753 185.911Z" fill="white"/>
<path d="M363.169 187.516C362.38 186.615 361.986 185.742 361.986 184.897C361.986 183.94 362.268 183.123 362.831 182.447C363.45 181.771 364.239 181.433 365.197 181.433C365.929 181.433 366.661 181.658 367.393 182.109C368.126 182.503 368.802 183.01 369.421 183.63C370.041 184.193 370.576 184.756 371.027 185.32C371.477 185.883 371.759 186.277 371.872 186.502C371.984 186.446 372.238 186.418 372.632 186.418C373.702 186.418 374.716 186.699 375.674 187.263C376.688 187.77 377.589 188.445 378.377 189.29C379.222 190.135 379.955 191.036 380.574 191.994C381.194 192.951 381.729 193.853 382.18 194.697C382.63 195.542 383.025 196.472 383.363 197.485C383.757 198.443 384.067 199.429 384.292 200.442C384.517 201.456 384.686 202.442 384.799 203.399C384.912 204.357 384.968 205.23 384.968 206.018C384.968 208.328 384.658 210.496 384.039 212.524C383.475 214.495 382.518 216.241 381.166 217.762C379.87 219.283 378.152 220.465 376.012 221.31C373.871 222.211 371.252 222.662 368.154 222.662C365.901 222.662 364.042 221.986 362.577 220.634C361.169 219.283 360.071 217.706 359.282 215.903C358.494 214.045 357.93 212.158 357.592 210.243C357.311 208.328 357.17 206.779 357.17 205.596C357.17 204.47 357.311 203.371 357.592 202.301C357.874 201.231 358.24 200.245 358.691 199.344C359.141 198.387 359.592 197.542 360.043 196.81C360.55 196.077 361.028 195.458 361.479 194.951L365.704 189.966C365.647 189.741 365.45 189.487 365.112 189.206C364.83 188.868 364.549 188.558 364.267 188.277L363.169 187.516ZM371.703 192.923L371.365 193.43C370.689 194.275 369.928 195.148 369.083 196.049C368.295 196.95 367.534 197.88 366.802 198.837C366.07 199.795 365.45 200.837 364.943 201.963C364.436 203.09 364.183 204.329 364.183 205.68C364.183 206.92 364.267 208.159 364.436 209.398C364.661 210.581 364.943 211.651 365.281 212.608C365.675 213.566 366.154 214.354 366.717 214.974C367.281 215.537 367.929 215.819 368.661 215.819C369.28 215.819 369.9 215.762 370.52 215.65C371.196 215.537 371.787 215.424 372.294 215.312L375.336 213.791C375.505 213.566 375.786 213.284 376.181 212.946C376.575 212.552 376.885 212.158 377.11 211.763C377.617 209.905 377.871 208.074 377.871 206.272C377.871 203.906 377.476 201.653 376.688 199.513C375.899 197.316 374.688 195.317 373.054 193.515L372.041 193.008H371.956C371.843 193.008 371.759 192.98 371.703 192.923Z" fill="white"/>
<path d="M394.516 189.882C394.459 189.769 394.431 189.572 394.431 189.29C394.431 188.333 394.797 187.544 395.53 186.925C396.262 186.305 397.079 185.995 397.98 185.995C399.444 185.995 400.768 187.235 401.951 189.713C403.134 192.191 404.204 195.711 405.162 200.273L405.838 203.653V203.822C405.838 203.822 405.978 203.54 406.26 202.977C406.542 202.357 406.852 201.625 407.19 200.78C407.584 199.935 407.978 199.091 408.372 198.246C408.767 197.401 409.077 196.725 409.302 196.218L411.161 191.487C411.33 190.586 411.611 189.938 412.006 189.544C412.006 189.487 412.034 189.431 412.09 189.375C412.203 189.262 412.315 189.121 412.428 188.952L412.935 188.699C413.104 188.643 413.329 188.558 413.611 188.445C413.949 188.333 414.287 188.277 414.625 188.277C415.864 188.277 416.878 188.924 417.667 190.22L417.836 190.811L417.92 191.402C418.371 192.416 418.878 193.543 419.441 194.782C420.004 195.965 420.568 197.147 421.131 198.33C421.694 199.513 422.257 200.64 422.821 201.71C423.44 202.78 424.032 203.737 424.595 204.582C425.102 203.681 425.637 202.667 426.2 201.541C426.764 200.358 427.299 199.147 427.806 197.908C428.313 196.612 428.735 195.317 429.073 194.022C429.468 192.67 429.721 191.346 429.834 190.051C430.003 189.037 430.453 188.277 431.186 187.77C431.918 187.206 432.65 186.925 433.382 186.925C434.34 186.925 435.129 187.291 435.748 188.023C436.424 188.755 436.762 189.685 436.762 190.811C436.593 192.67 436.227 194.472 435.664 196.218C435.157 197.908 434.537 199.569 433.805 201.203C433.129 202.836 432.368 204.413 431.523 205.934C430.735 207.455 429.918 208.975 429.073 210.496C428.848 211.059 428.651 211.707 428.482 212.439C428.313 213.172 428.059 213.876 427.721 214.551C427.383 215.227 426.933 215.819 426.369 216.326C425.862 216.776 425.158 217.002 424.257 217.002C423.356 217.002 422.68 216.72 422.229 216.157C421.779 215.593 421.441 214.805 421.215 213.791C420.934 212.383 420.286 210.778 419.272 208.975C418.314 207.117 417.272 205.202 416.146 203.23L415.047 201.541L413.189 205.174C412.625 206.244 412.146 207.201 411.752 208.046C411.414 208.835 411.104 209.567 410.823 210.243C410.597 210.919 410.372 211.594 410.147 212.27C409.978 212.946 409.781 213.707 409.555 214.551L409.133 216.072C408.795 217.368 408.344 218.353 407.781 219.029C407.274 219.761 406.542 220.128 405.584 220.128C404.796 220.128 404.063 219.818 403.387 219.198C402.711 218.579 402.289 217.677 402.12 216.495V216.157C401.388 212.665 400.655 209.623 399.923 207.032C399.191 204.441 398.487 201.794 397.811 199.091C397.473 197.795 397.022 196.274 396.459 194.528C395.896 192.726 395.248 191.177 394.516 189.882Z" fill="white"/>
<path d="M494.978 171.126C495.485 172.083 495.738 172.985 495.738 173.829C495.738 174.618 495.4 175.322 494.724 175.942C494.105 176.505 493.288 176.786 492.274 176.786C491.598 176.786 490.978 176.646 490.415 176.364C488.218 174.505 485.824 173.576 483.233 173.576C480.304 173.576 477.826 174.759 475.798 177.124C475.741 177.35 475.657 177.603 475.544 177.885C475.488 178.166 475.403 178.42 475.291 178.645C475.291 181.011 475.91 182.982 477.15 184.559C478.389 186.08 479.938 187.46 481.797 188.699C483.656 189.882 485.655 191.008 487.796 192.078C489.936 193.148 491.936 194.388 493.795 195.796C495.654 197.204 497.203 198.922 498.442 200.949C499.681 202.921 500.301 205.399 500.301 208.384C500.301 210.862 499.709 212.946 498.526 214.636C497.4 216.326 495.963 217.706 494.217 218.776C492.471 219.79 490.612 220.522 488.641 220.972C486.669 221.479 484.838 221.733 483.149 221.733C480.22 221.733 477.347 221.113 474.53 219.874C471.714 218.691 469.264 216.889 467.179 214.467C466.729 213.847 466.278 213.059 465.828 212.101C465.377 211.144 465.152 210.215 465.152 209.313C465.152 208.356 465.433 207.539 465.997 206.863C466.616 206.131 467.489 205.765 468.616 205.765C469.686 205.765 470.531 206.244 471.151 207.201C471.827 208.102 472.418 209.229 472.925 210.581C474.39 212.045 475.967 213.143 477.657 213.876C479.346 214.551 481.093 214.889 482.895 214.889C483.571 214.889 484.416 214.833 485.43 214.72C486.444 214.551 487.43 214.298 488.387 213.96C489.401 213.622 490.302 213.2 491.091 212.693C491.936 212.13 492.527 211.454 492.865 210.665C492.978 210.215 493.062 209.848 493.119 209.567C493.231 209.229 493.344 208.919 493.457 208.637C493.119 206.722 492.415 205.061 491.344 203.653C490.331 202.245 489.119 201.006 487.711 199.935C486.303 198.865 484.81 197.936 483.233 197.147C481.712 196.359 480.304 195.599 479.008 194.866C476.699 193.571 474.615 192.022 472.756 190.22C470.897 188.361 469.489 185.686 468.531 182.194C468.25 181.18 468.109 180.222 468.109 179.321C468.109 177.406 468.588 175.66 469.545 174.083C470.503 172.506 471.742 171.182 473.263 170.112C474.784 168.986 476.502 168.113 478.417 167.493C480.332 166.874 482.276 166.564 484.247 166.564C486.556 166.564 488.556 166.986 490.246 167.831C491.936 168.62 493.513 169.718 494.978 171.126Z" fill="white"/>
<path d="M506.976 172.731C506.131 172.45 505.539 171.999 505.201 171.379C504.863 170.76 504.694 170.112 504.694 169.436C504.694 168.648 505.032 167.916 505.708 167.24C506.384 166.507 507.229 166.141 508.243 166.141C510.046 166.141 511.51 166.536 512.637 167.324C513.763 168.113 514.636 169.126 515.256 170.366C515.876 171.548 516.298 172.872 516.523 174.336C516.749 175.744 516.861 177.068 516.861 178.307V180.588C516.861 183.686 516.974 186.671 517.199 189.544C517.425 192.36 517.65 195.035 517.875 197.57C519.678 195.768 521.452 194.303 523.198 193.177C524.944 191.994 527 191.402 529.366 191.402C531.112 191.402 532.577 191.769 533.76 192.501C534.999 193.233 536.041 194.219 536.886 195.458C537.731 196.641 538.407 198.049 538.914 199.682C539.421 201.259 539.815 202.921 540.097 204.667C540.378 206.356 540.604 208.074 540.773 209.82C540.942 211.566 541.111 213.172 541.28 214.636C541.28 215.762 540.942 216.635 540.266 217.255C539.59 217.875 538.829 218.184 537.984 218.184C536.802 218.184 535.928 217.79 535.365 217.002C534.802 216.213 534.408 215.227 534.182 214.045C534.013 212.805 533.929 211.482 533.929 210.074C533.929 208.609 533.844 207.201 533.675 205.849C533.281 204.16 532.802 202.639 532.239 201.287C531.676 199.935 530.831 198.865 529.704 198.077C527.564 198.302 525.789 199.147 524.381 200.611C522.973 202.076 521.846 203.85 521.001 205.934C520.156 207.962 519.565 210.158 519.227 212.524C518.889 214.833 518.72 216.945 518.72 218.86C518.72 219.874 518.354 220.691 517.622 221.31C516.946 221.93 516.213 222.24 515.425 222.24C514.636 222.24 513.848 221.986 513.059 221.479C512.327 220.972 511.904 220.099 511.792 218.86C511.792 213.566 511.623 208.356 511.285 203.23C511.003 198.049 510.665 192.895 510.271 187.77C510.102 185.235 509.933 182.729 509.764 180.25C509.651 177.772 509.398 175.519 509.003 173.492C508.722 173.435 508.046 173.182 506.976 172.731Z" fill="white"/>
<path d="M550.912 216.326C550.912 214.805 550.94 213.228 550.996 211.594C551.109 209.961 551.306 208.412 551.588 206.948L552.179 200.696L552.94 196.134C553.109 195.401 553.193 194.726 553.193 194.106C553.193 193.43 553.052 192.726 552.771 191.994C552.545 191.262 551.898 190.896 550.827 190.896C550.377 190.896 549.926 190.783 549.476 190.558C549.081 190.276 548.715 189.966 548.377 189.628C548.039 189.234 547.757 188.84 547.532 188.445C547.363 188.051 547.279 187.685 547.279 187.347C547.279 186.671 547.617 185.939 548.293 185.151C548.969 184.362 549.898 183.968 551.081 183.968C554.01 184.249 556.15 185.066 557.502 186.418C558.854 187.77 559.53 189.431 559.53 191.402C561.22 190.22 563.192 189.347 565.445 188.783C567.698 188.164 570.373 187.741 573.471 187.516C574.711 187.516 575.668 187.854 576.344 188.53C577.02 189.15 577.358 189.938 577.358 190.896C577.358 191.74 577.076 192.501 576.513 193.177C575.95 193.796 575.189 194.19 574.232 194.359C571.641 194.528 569.444 194.81 567.641 195.204C565.839 195.599 564.318 196.246 563.079 197.147C561.84 197.992 560.882 199.147 560.206 200.611C559.53 202.076 559.023 203.963 558.685 206.272L558.432 207.539V211.003C558.375 211.848 558.319 212.721 558.263 213.622C558.263 214.467 558.206 215.34 558.094 216.241L557.84 217.762L557.333 219.114C556.432 220.184 555.39 220.719 554.207 220.719C552.179 220.719 551.081 219.536 550.912 217.171V216.326Z" fill="white"/>
<path d="M588.849 187.516C588.061 186.615 587.666 185.742 587.666 184.897C587.666 183.94 587.948 183.123 588.511 182.447C589.131 181.771 589.919 181.433 590.877 181.433C591.609 181.433 592.342 181.658 593.074 182.109C593.806 182.503 594.482 183.01 595.102 183.63C595.721 184.193 596.256 184.756 596.707 185.32C597.158 185.883 597.439 186.277 597.552 186.502C597.665 186.446 597.918 186.418 598.312 186.418C599.383 186.418 600.397 186.699 601.354 187.263C602.368 187.77 603.269 188.445 604.058 189.29C604.903 190.135 605.635 191.036 606.255 191.994C606.874 192.951 607.409 193.853 607.86 194.697C608.311 195.542 608.705 196.472 609.043 197.485C609.437 198.443 609.747 199.429 609.972 200.442C610.198 201.456 610.367 202.442 610.479 203.399C610.592 204.357 610.648 205.23 610.648 206.018C610.648 208.328 610.339 210.496 609.719 212.524C609.156 214.495 608.198 216.241 606.846 217.762C605.551 219.283 603.833 220.465 601.692 221.31C599.552 222.211 596.932 222.662 593.834 222.662C591.581 222.662 589.722 221.986 588.258 220.634C586.85 219.283 585.751 217.706 584.962 215.903C584.174 214.045 583.611 212.158 583.273 210.243C582.991 208.328 582.85 206.779 582.85 205.596C582.85 204.47 582.991 203.371 583.273 202.301C583.554 201.231 583.92 200.245 584.371 199.344C584.822 198.387 585.272 197.542 585.723 196.81C586.23 196.077 586.709 195.458 587.159 194.951L591.384 189.966C591.328 189.741 591.13 189.487 590.793 189.206C590.511 188.868 590.229 188.558 589.948 188.277L588.849 187.516ZM597.383 192.923L597.045 193.43C596.369 194.275 595.609 195.148 594.764 196.049C593.975 196.95 593.215 197.88 592.482 198.837C591.75 199.795 591.13 200.837 590.624 201.963C590.117 203.09 589.863 204.329 589.863 205.68C589.863 206.92 589.948 208.159 590.117 209.398C590.342 210.581 590.624 211.651 590.961 212.608C591.356 213.566 591.835 214.354 592.398 214.974C592.961 215.537 593.609 215.819 594.341 215.819C594.961 215.819 595.58 215.762 596.2 215.65C596.876 215.537 597.467 215.424 597.974 215.312L601.016 213.791C601.185 213.566 601.467 213.284 601.861 212.946C602.255 212.552 602.565 212.158 602.79 211.763C603.297 209.905 603.551 208.074 603.551 206.272C603.551 203.906 603.157 201.653 602.368 199.513C601.579 197.316 600.368 195.317 598.735 193.515L597.721 193.008H597.636C597.524 193.008 597.439 192.98 597.383 192.923Z" fill="white"/>
<path d="M622.646 187.516C621.858 186.615 621.463 185.742 621.463 184.897C621.463 183.94 621.745 183.123 622.308 182.447C622.928 181.771 623.717 181.433 624.674 181.433C625.406 181.433 626.139 181.658 626.871 182.109C627.603 182.503 628.279 183.01 628.899 183.63C629.518 184.193 630.054 184.756 630.504 185.32C630.955 185.883 631.236 186.277 631.349 186.502C631.462 186.446 631.715 186.418 632.109 186.418C633.18 186.418 634.194 186.699 635.151 187.263C636.165 187.77 637.066 188.445 637.855 189.29C638.7 190.135 639.432 191.036 640.052 191.994C640.671 192.951 641.207 193.853 641.657 194.697C642.108 195.542 642.502 196.472 642.84 197.485C643.234 198.443 643.544 199.429 643.77 200.442C643.995 201.456 644.164 202.442 644.276 203.399C644.389 204.357 644.445 205.23 644.445 206.018C644.445 208.328 644.136 210.496 643.516 212.524C642.953 214.495 641.995 216.241 640.643 217.762C639.348 219.283 637.63 220.465 635.489 221.31C633.349 222.211 630.729 222.662 627.631 222.662C625.378 222.662 623.519 221.986 622.055 220.634C620.647 219.283 619.548 217.706 618.76 215.903C617.971 214.045 617.408 212.158 617.07 210.243C616.788 208.328 616.647 206.779 616.647 205.596C616.647 204.47 616.788 203.371 617.07 202.301C617.351 201.231 617.718 200.245 618.168 199.344C618.619 198.387 619.069 197.542 619.52 196.81C620.027 196.077 620.506 195.458 620.956 194.951L625.181 189.966C625.125 189.741 624.928 189.487 624.59 189.206C624.308 188.868 624.026 188.558 623.745 188.277L622.646 187.516ZM631.18 192.923L630.842 193.43C630.166 194.275 629.406 195.148 628.561 196.049C627.772 196.95 627.012 197.88 626.279 198.837C625.547 199.795 624.928 200.837 624.421 201.963C623.914 203.09 623.66 204.329 623.66 205.68C623.66 206.92 623.745 208.159 623.914 209.398C624.139 210.581 624.421 211.651 624.759 212.608C625.153 213.566 625.632 214.354 626.195 214.974C626.758 215.537 627.406 215.819 628.138 215.819C628.758 215.819 629.378 215.762 629.997 215.65C630.673 215.537 631.265 215.424 631.772 215.312L634.813 213.791C634.982 213.566 635.264 213.284 635.658 212.946C636.052 212.552 636.362 212.158 636.588 211.763C637.095 209.905 637.348 208.074 637.348 206.272C637.348 203.906 636.954 201.653 636.165 199.513C635.377 197.316 634.165 195.317 632.532 193.515L631.518 193.008H631.434C631.321 193.008 631.236 192.98 631.18 192.923Z" fill="white"/>
<path d="M652.219 185.911C652.444 185.855 652.698 185.826 652.979 185.826C653.261 185.826 653.599 185.798 653.993 185.742H655.007C657.767 185.742 659.795 186.756 661.091 188.783L661.429 188.445C661.654 188.389 662.02 188.108 662.527 187.601L662.78 187.516C664.358 186.728 665.766 186.333 667.005 186.333C669.54 186.333 671.624 187.122 673.258 188.699C674.891 190.276 676.187 192.135 677.144 194.275C677.144 194.331 677.201 194.416 677.313 194.528L677.398 194.613C677.961 193.768 678.609 192.951 679.341 192.163C680.073 191.318 680.834 190.586 681.622 189.966C682.467 189.29 683.312 188.755 684.157 188.361C685.058 187.967 685.96 187.77 686.861 187.77C688.382 187.77 689.762 188.333 691.001 189.459C692.24 190.529 693.282 191.938 694.127 193.684C695.029 195.43 695.733 197.401 696.24 199.598C696.747 201.794 697 204.019 697 206.272C697 208.525 696.916 210.806 696.747 213.115C696.578 215.368 696.493 217.677 696.493 220.043C696.211 221.395 695.704 222.211 694.972 222.493C694.24 222.831 693.62 223 693.113 223L691.17 222.324C690.945 222.099 690.494 221.507 689.818 220.55V220.465C689.762 220.465 689.734 220.437 689.734 220.381C689.734 220.325 689.705 220.296 689.649 220.296C689.649 220.296 689.649 220.24 689.649 220.128L689.48 219.536C689.311 219.029 689.227 218.494 689.227 217.931C689.227 217.48 689.283 217.058 689.396 216.664C689.565 216.213 689.705 215.847 689.818 215.565L690.072 213.453C690.184 212.327 690.269 211.2 690.325 210.074C690.381 208.891 690.41 207.708 690.41 206.525C690.41 204.272 690.156 202.132 689.649 200.104C689.142 198.077 688.241 196.443 686.945 195.204C685.312 196.218 683.988 197.514 682.974 199.091C682.017 200.668 681.256 202.442 680.693 204.413C680.186 206.385 679.82 208.497 679.594 210.75C679.425 212.946 679.341 215.143 679.341 217.339C679.341 218.241 679.003 219.029 678.327 219.705C677.651 220.381 676.919 220.719 676.13 220.719C675.342 220.719 674.525 220.465 673.68 219.959C672.891 219.452 672.497 218.55 672.497 217.255C672.497 215.903 672.497 214.523 672.497 213.115C672.553 211.707 672.638 210.186 672.751 208.553C672.751 206.92 672.666 205.286 672.497 203.653C672.384 202.019 672.159 200.499 671.821 199.091C671.483 197.683 671.004 196.472 670.385 195.458C669.765 194.388 668.977 193.627 668.019 193.177C667.399 193.177 666.808 193.289 666.245 193.515C665.738 193.74 665.231 193.993 664.724 194.275L664.47 194.444C663.851 195.063 663.456 195.401 663.287 195.458C663.287 197.147 663.428 198.894 663.71 200.696C663.991 202.498 664.132 204.357 664.132 206.272C664.132 207.68 664.076 209.313 663.963 211.172C663.907 212.974 663.71 214.72 663.372 216.41C663.034 218.044 662.527 219.423 661.851 220.55C661.231 221.733 660.33 222.324 659.147 222.324C658.302 222.324 657.486 222.043 656.697 221.479C655.965 220.916 655.599 219.987 655.599 218.691C655.599 218.353 655.627 218.1 655.683 217.931C656.753 214.214 657.288 210.074 657.288 205.512C657.288 200.724 656.838 196.697 655.936 193.43L655.683 193.092C655.12 193.036 654.5 192.923 653.824 192.754C653.205 192.585 652.613 192.36 652.05 192.078C651.487 191.74 651.008 191.346 650.613 190.896C650.219 190.389 650.022 189.769 650.022 189.037C650.022 187.629 650.754 186.587 652.219 185.911Z" fill="white"/>
</svg>
